<svg width="24" height="25" viewBox="0 0 24 25" fill="none" xmlns="http://www.w3.org/2000/svg">
<path d="M12 24.167C11.6113 24.167 11.285 24.035 11.021 23.771C10.757 23.507 10.625 23.1807 10.625 22.792V13.875H1.708C1.31933 13.875 0.993 13.743 0.729 13.479C0.465 13.215 0.333 12.8887 0.333 12.5C0.333 12.1113 0.465 11.785 0.729 11.521C0.993 11.257 1.31933 11.125 1.708 11.125H10.625V2.208C10.625 1.81933 10.757 1.493 11.021 1.229C11.285 0.965 11.6113 0.833 12 0.833C12.3887 0.833 12.715 0.965 12.979 1.229C13.243 1.493 13.375 1.81933 13.375 2.208V11.125H22.292C22.6807 11.125 23.007 11.257 23.271 11.521C23.535 11.785 23.667 12.1113 23.667 12.5C23.667 12.8887 23.535 13.215 23.271 13.479C23.007 13.743 22.6807 13.875 22.292 13.875H13.375V22.792C13.375 23.1807 13.243 23.507 12.979 23.771C12.715 24.035 12.3887 24.167 12 24.167Z" fill="white"/>
</svg>
